<mxfile host="app.diagrams.net" modified="2023-06-27T10:02:28.780Z" agent="Mozilla/5.0 (Windows NT 10.0; Win64; x64) AppleWebKit/537.36 (KHTML, like Gecko) Chrome/114.0.0.0 Safari/537.36" etag="C0aW2yIOWmQLitPDDN8Q" version="21.5.0" type="github">
  <diagram name="第 1 页" id="25BMePDq6cXx8D3gwxK-">
    <mxGraphModel dx="2183" dy="1176" grid="1" gridSize="10" guides="1" tooltips="1" connect="1" arrows="1" fold="1" page="1" pageScale="1" pageWidth="827" pageHeight="1169" math="0" shadow="0">
      <root>
        <mxCell id="0" />
        <mxCell id="1" parent="0" />
        <mxCell id="T-K7xEtNnBetwkt4sHKm-1" value="Input layer" style="whiteSpace=wrap;html=1;aspect=fixed;" vertex="1" parent="1">
          <mxGeometry x="30" y="320" width="240" height="240" as="geometry" />
        </mxCell>
        <mxCell id="T-K7xEtNnBetwkt4sHKm-2" value="" style="whiteSpace=wrap;html=1;aspect=fixed;fillColor=#ffe6cc;strokeColor=#d79b00;" vertex="1" parent="1">
          <mxGeometry x="310" y="290" width="240" height="240" as="geometry" />
        </mxCell>
        <mxCell id="T-K7xEtNnBetwkt4sHKm-3" value="" style="whiteSpace=wrap;html=1;aspect=fixed;fillColor=#ffe6cc;strokeColor=#d79b00;" vertex="1" parent="1">
          <mxGeometry x="320" y="300" width="240" height="240" as="geometry" />
        </mxCell>
        <mxCell id="T-K7xEtNnBetwkt4sHKm-4" value="" style="whiteSpace=wrap;html=1;aspect=fixed;fillColor=#ffe6cc;strokeColor=#d79b00;" vertex="1" parent="1">
          <mxGeometry x="330" y="310" width="240" height="240" as="geometry" />
        </mxCell>
        <mxCell id="T-K7xEtNnBetwkt4sHKm-5" value="" style="whiteSpace=wrap;html=1;aspect=fixed;fillColor=#ffe6cc;strokeColor=#d79b00;" vertex="1" parent="1">
          <mxGeometry x="370" y="350" width="240" height="240" as="geometry" />
        </mxCell>
        <mxCell id="T-K7xEtNnBetwkt4sHKm-6" value="" style="whiteSpace=wrap;html=1;aspect=fixed;fillColor=#ffe6cc;strokeColor=#d79b00;" vertex="1" parent="1">
          <mxGeometry x="380" y="360" width="240" height="240" as="geometry" />
        </mxCell>
        <mxCell id="T-K7xEtNnBetwkt4sHKm-7" value="" style="whiteSpace=wrap;html=1;aspect=fixed;fillColor=#ffe6cc;strokeColor=#d79b00;" vertex="1" parent="1">
          <mxGeometry x="390" y="370" width="240" height="240" as="geometry" />
        </mxCell>
        <mxCell id="T-K7xEtNnBetwkt4sHKm-8" value="" style="whiteSpace=wrap;html=1;aspect=fixed;fillColor=#dae8fc;strokeColor=#6c8ebf;" vertex="1" parent="1">
          <mxGeometry x="220" y="510" width="30" height="30" as="geometry" />
        </mxCell>
        <mxCell id="T-K7xEtNnBetwkt4sHKm-15" value="" style="whiteSpace=wrap;html=1;aspect=fixed;fillColor=#dae8fc;strokeColor=#6c8ebf;" vertex="1" parent="1">
          <mxGeometry x="580" y="560" width="10" height="10" as="geometry" />
        </mxCell>
        <mxCell id="T-K7xEtNnBetwkt4sHKm-18" style="rounded=0;orthogonalLoop=1;jettySize=auto;html=1;entryX=1;entryY=0;entryDx=0;entryDy=0;endArrow=none;endFill=0;dashed=1;dashPattern=1 2;exitX=0;exitY=0;exitDx=0;exitDy=0;" edge="1" parent="1" source="T-K7xEtNnBetwkt4sHKm-15" target="T-K7xEtNnBetwkt4sHKm-8">
          <mxGeometry relative="1" as="geometry">
            <mxPoint x="570" y="540" as="sourcePoint" />
            <mxPoint x="150" y="490" as="targetPoint" />
          </mxGeometry>
        </mxCell>
        <mxCell id="T-K7xEtNnBetwkt4sHKm-19" style="rounded=0;orthogonalLoop=1;jettySize=auto;html=1;exitX=0;exitY=1;exitDx=0;exitDy=0;entryX=1;entryY=1;entryDx=0;entryDy=0;endArrow=none;endFill=0;dashed=1;dashPattern=1 2;" edge="1" parent="1" source="T-K7xEtNnBetwkt4sHKm-15" target="T-K7xEtNnBetwkt4sHKm-8">
          <mxGeometry relative="1" as="geometry">
            <mxPoint x="670" y="590" as="sourcePoint" />
            <mxPoint x="220" y="540" as="targetPoint" />
          </mxGeometry>
        </mxCell>
        <mxCell id="T-K7xEtNnBetwkt4sHKm-22" value="" style="whiteSpace=wrap;html=1;aspect=fixed;fillColor=#ffe6cc;strokeColor=#d79b00;" vertex="1" parent="1">
          <mxGeometry x="670" y="290" width="240" height="240" as="geometry" />
        </mxCell>
        <mxCell id="T-K7xEtNnBetwkt4sHKm-23" value="" style="whiteSpace=wrap;html=1;aspect=fixed;fillColor=#ffe6cc;strokeColor=#d79b00;" vertex="1" parent="1">
          <mxGeometry x="680" y="300" width="240" height="240" as="geometry" />
        </mxCell>
        <mxCell id="T-K7xEtNnBetwkt4sHKm-24" value="" style="whiteSpace=wrap;html=1;aspect=fixed;fillColor=#ffe6cc;strokeColor=#d79b00;" vertex="1" parent="1">
          <mxGeometry x="690" y="310" width="240" height="240" as="geometry" />
        </mxCell>
        <mxCell id="T-K7xEtNnBetwkt4sHKm-25" value="" style="whiteSpace=wrap;html=1;aspect=fixed;fillColor=#ffe6cc;strokeColor=#d79b00;" vertex="1" parent="1">
          <mxGeometry x="730" y="350" width="240" height="240" as="geometry" />
        </mxCell>
        <mxCell id="T-K7xEtNnBetwkt4sHKm-26" value="" style="whiteSpace=wrap;html=1;aspect=fixed;fillColor=#ffe6cc;strokeColor=#d79b00;" vertex="1" parent="1">
          <mxGeometry x="740" y="360" width="240" height="240" as="geometry" />
        </mxCell>
        <mxCell id="T-K7xEtNnBetwkt4sHKm-27" value="" style="whiteSpace=wrap;html=1;aspect=fixed;fillColor=#ffe6cc;strokeColor=#d79b00;" vertex="1" parent="1">
          <mxGeometry x="750" y="370" width="240" height="240" as="geometry" />
        </mxCell>
        <mxCell id="T-K7xEtNnBetwkt4sHKm-28" style="rounded=0;orthogonalLoop=1;jettySize=auto;html=1;exitX=0;exitY=0;exitDx=0;exitDy=0;entryX=0;entryY=0;entryDx=0;entryDy=0;shape=link;strokeColor=none;" edge="1" parent="1" source="T-K7xEtNnBetwkt4sHKm-29">
          <mxGeometry relative="1" as="geometry">
            <mxPoint x="370" y="640" as="targetPoint" />
          </mxGeometry>
        </mxCell>
        <mxCell id="T-K7xEtNnBetwkt4sHKm-29" value="" style="whiteSpace=wrap;html=1;aspect=fixed;fillColor=#dae8fc;strokeColor=#6c8ebf;" vertex="1" parent="1">
          <mxGeometry x="570" y="395" width="30" height="30" as="geometry" />
        </mxCell>
        <mxCell id="T-K7xEtNnBetwkt4sHKm-30" value="" style="whiteSpace=wrap;html=1;aspect=fixed;fillColor=#dae8fc;strokeColor=#6c8ebf;" vertex="1" parent="1">
          <mxGeometry x="940" y="405" width="10" height="10" as="geometry" />
        </mxCell>
        <mxCell id="T-K7xEtNnBetwkt4sHKm-31" style="rounded=0;orthogonalLoop=1;jettySize=auto;html=1;entryX=1;entryY=0;entryDx=0;entryDy=0;endArrow=none;endFill=0;dashed=1;dashPattern=1 2;exitX=0;exitY=0;exitDx=0;exitDy=0;" edge="1" parent="1" source="T-K7xEtNnBetwkt4sHKm-30" target="T-K7xEtNnBetwkt4sHKm-29">
          <mxGeometry relative="1" as="geometry">
            <mxPoint x="930" y="540" as="sourcePoint" />
            <mxPoint x="510" y="490" as="targetPoint" />
          </mxGeometry>
        </mxCell>
        <mxCell id="T-K7xEtNnBetwkt4sHKm-32" style="rounded=0;orthogonalLoop=1;jettySize=auto;html=1;exitX=0;exitY=1;exitDx=0;exitDy=0;entryX=1;entryY=1;entryDx=0;entryDy=0;endArrow=none;endFill=0;dashed=1;dashPattern=1 2;" edge="1" parent="1" source="T-K7xEtNnBetwkt4sHKm-30" target="T-K7xEtNnBetwkt4sHKm-29">
          <mxGeometry relative="1" as="geometry">
            <mxPoint x="1030" y="590" as="sourcePoint" />
            <mxPoint x="580" y="540" as="targetPoint" />
          </mxGeometry>
        </mxCell>
        <mxCell id="T-K7xEtNnBetwkt4sHKm-34" value="" style="whiteSpace=wrap;html=1;aspect=fixed;fillColor=#ffe6cc;strokeColor=#d79b00;" vertex="1" parent="1">
          <mxGeometry x="1210" y="290" width="240" height="240" as="geometry" />
        </mxCell>
        <mxCell id="T-K7xEtNnBetwkt4sHKm-35" value="" style="whiteSpace=wrap;html=1;aspect=fixed;fillColor=#ffe6cc;strokeColor=#d79b00;" vertex="1" parent="1">
          <mxGeometry x="1220" y="300" width="240" height="240" as="geometry" />
        </mxCell>
        <mxCell id="T-K7xEtNnBetwkt4sHKm-36" value="" style="whiteSpace=wrap;html=1;aspect=fixed;fillColor=#ffe6cc;strokeColor=#d79b00;" vertex="1" parent="1">
          <mxGeometry x="1230" y="310" width="240" height="240" as="geometry" />
        </mxCell>
        <mxCell id="T-K7xEtNnBetwkt4sHKm-37" value="" style="whiteSpace=wrap;html=1;aspect=fixed;fillColor=#ffe6cc;strokeColor=#d79b00;" vertex="1" parent="1">
          <mxGeometry x="1270" y="350" width="240" height="240" as="geometry" />
        </mxCell>
        <mxCell id="T-K7xEtNnBetwkt4sHKm-38" value="" style="whiteSpace=wrap;html=1;aspect=fixed;fillColor=#ffe6cc;strokeColor=#d79b00;" vertex="1" parent="1">
          <mxGeometry x="1280" y="360" width="240" height="240" as="geometry" />
        </mxCell>
        <mxCell id="T-K7xEtNnBetwkt4sHKm-39" value="" style="whiteSpace=wrap;html=1;aspect=fixed;fillColor=#ffe6cc;strokeColor=#d79b00;" vertex="1" parent="1">
          <mxGeometry x="1290" y="370" width="240" height="240" as="geometry" />
        </mxCell>
        <mxCell id="T-K7xEtNnBetwkt4sHKm-40" style="rounded=0;orthogonalLoop=1;jettySize=auto;html=1;exitX=0;exitY=0;exitDx=0;exitDy=0;entryX=0;entryY=0;entryDx=0;entryDy=0;shape=link;strokeColor=none;" edge="1" parent="1" source="T-K7xEtNnBetwkt4sHKm-41">
          <mxGeometry relative="1" as="geometry">
            <mxPoint x="990" y="610" as="targetPoint" />
          </mxGeometry>
        </mxCell>
        <mxCell id="T-K7xEtNnBetwkt4sHKm-41" value="" style="whiteSpace=wrap;html=1;aspect=fixed;fillColor=#dae8fc;strokeColor=#6c8ebf;" vertex="1" parent="1">
          <mxGeometry x="1480" y="395" width="30" height="30" as="geometry" />
        </mxCell>
        <mxCell id="T-K7xEtNnBetwkt4sHKm-45" value="" style="whiteSpace=wrap;html=1;aspect=fixed;fillColor=#ffe6cc;strokeColor=#d79b00;" vertex="1" parent="1">
          <mxGeometry x="1570" y="330" width="240" height="240" as="geometry" />
        </mxCell>
        <mxCell id="T-K7xEtNnBetwkt4sHKm-42" value="" style="whiteSpace=wrap;html=1;aspect=fixed;fillColor=#dae8fc;strokeColor=#6c8ebf;" vertex="1" parent="1">
          <mxGeometry x="1760" y="370" width="10" height="10" as="geometry" />
        </mxCell>
        <mxCell id="T-K7xEtNnBetwkt4sHKm-43" style="rounded=0;orthogonalLoop=1;jettySize=auto;html=1;entryX=1;entryY=0;entryDx=0;entryDy=0;endArrow=none;endFill=0;dashed=1;dashPattern=1 2;exitX=0;exitY=0;exitDx=0;exitDy=0;" edge="1" parent="1" source="T-K7xEtNnBetwkt4sHKm-42" target="T-K7xEtNnBetwkt4sHKm-41">
          <mxGeometry relative="1" as="geometry">
            <mxPoint x="1470" y="540" as="sourcePoint" />
            <mxPoint x="1050" y="490" as="targetPoint" />
          </mxGeometry>
        </mxCell>
        <mxCell id="T-K7xEtNnBetwkt4sHKm-44" style="rounded=0;orthogonalLoop=1;jettySize=auto;html=1;exitX=0;exitY=1;exitDx=0;exitDy=0;entryX=1;entryY=1;entryDx=0;entryDy=0;endArrow=none;endFill=0;dashed=1;dashPattern=1 2;" edge="1" parent="1" source="T-K7xEtNnBetwkt4sHKm-42" target="T-K7xEtNnBetwkt4sHKm-41">
          <mxGeometry relative="1" as="geometry">
            <mxPoint x="1570" y="590" as="sourcePoint" />
            <mxPoint x="1120" y="540" as="targetPoint" />
          </mxGeometry>
        </mxCell>
        <mxCell id="T-K7xEtNnBetwkt4sHKm-49" value="" style="endArrow=none;dashed=1;html=1;dashPattern=1 4;strokeWidth=7;rounded=1;" edge="1" parent="1">
          <mxGeometry width="50" height="50" relative="1" as="geometry">
            <mxPoint x="1050" y="449.5" as="sourcePoint" />
            <mxPoint x="1170" y="450" as="targetPoint" />
          </mxGeometry>
        </mxCell>
        <mxCell id="T-K7xEtNnBetwkt4sHKm-50" value="&lt;font style=&quot;font-size: 19px;&quot;&gt;Convolution&lt;br&gt;(24x24)-64&lt;/font&gt;" style="text;html=1;strokeColor=none;fillColor=none;align=center;verticalAlign=middle;whiteSpace=wrap;rounded=0;strokeWidth=1;spacing=2;labelBorderColor=none;fontStyle=1" vertex="1" parent="1">
          <mxGeometry x="360" y="630" width="180" height="40" as="geometry" />
        </mxCell>
        <mxCell id="T-K7xEtNnBetwkt4sHKm-51" value="&lt;font style=&quot;font-size: 19px;&quot;&gt;Convolution&lt;br&gt;(24x24)-64&lt;/font&gt;" style="text;html=1;strokeColor=none;fillColor=none;align=center;verticalAlign=middle;whiteSpace=wrap;rounded=0;strokeWidth=1;spacing=2;labelBorderColor=none;fontStyle=1" vertex="1" parent="1">
          <mxGeometry x="720" y="630" width="180" height="40" as="geometry" />
        </mxCell>
        <mxCell id="T-K7xEtNnBetwkt4sHKm-52" value="&lt;font style=&quot;font-size: 19px;&quot;&gt;Convolution&lt;br&gt;(24x24)-64&lt;/font&gt;" style="text;html=1;strokeColor=none;fillColor=none;align=center;verticalAlign=middle;whiteSpace=wrap;rounded=0;strokeWidth=1;spacing=2;labelBorderColor=none;fontStyle=1" vertex="1" parent="1">
          <mxGeometry x="1250" y="630" width="180" height="40" as="geometry" />
        </mxCell>
      </root>
    </mxGraphModel>
  </diagram>
</mxfile>
